<?xml version="1.0" encoding="UTF-8"?>
<!--Generator: Apple Native CoreSVG 175.5-->
<!DOCTYPE svg
PUBLIC "-//W3C//DTD SVG 1.1//EN"
       "http://www.w3.org/Graphics/SVG/1.1/DTD/svg11.dtd">
<svg version="1.1" xmlns="http://www.w3.org/2000/svg" xmlns:xlink="http://www.w3.org/1999/xlink" width="20.8213" height="21.6636">
 <g>
  <rect height="21.6636" opacity="0" width="20.8213" x="0" y="0"/>
  <path d="M5.70508 15.9136C8.95068 19.1592 12.8926 21.6636 16.1157 21.6636C17.5645 21.6636 18.8335 21.1582 19.8555 20.0352C20.4507 19.3726 20.8213 18.5977 20.8213 17.834C20.8213 17.2725 20.6079 16.7334 20.0801 16.3516L16.6323 13.9033C16.1045 13.5439 15.6665 13.3643 15.2622 13.3643C14.7568 13.3643 14.2964 13.6562 13.7798 14.1616L12.9824 14.9478C12.8589 15.0713 12.7017 15.1274 12.5557 15.1274C12.3872 15.1274 12.2188 15.0601 12.1064 15.0039C11.4102 14.6333 10.2197 13.6113 9.10791 12.5107C8.00732 11.4102 6.98535 10.2197 6.62598 9.52344C6.56982 9.3999 6.50244 9.24268 6.50244 9.07422C6.50244 8.92822 6.54736 8.78223 6.6709 8.65869L7.46826 7.83887C7.9624 7.32227 8.26562 6.87305 8.26562 6.35645C8.26562 5.95215 8.07471 5.51416 7.7041 4.98633L5.28955 1.5835C4.89648 1.04443 4.34619 0.808594 3.73975 0.808594C2.99854 0.808594 2.23486 1.14551 1.57227 1.78564C0.48291 2.83008 0 4.12158 0 5.54785C0 8.771 2.45947 12.6792 5.70508 15.9136Z" fill="#000000"/>
 </g>
</svg>
