<?xml version="1.0" encoding="UTF-8"?>
<!--Generator: Apple Native CoreSVG 175.5-->
<!DOCTYPE svg
PUBLIC "-//W3C//DTD SVG 1.1//EN"
       "http://www.w3.org/Graphics/SVG/1.1/DTD/svg11.dtd">
<svg version="1.1" xmlns="http://www.w3.org/2000/svg" xmlns:xlink="http://www.w3.org/1999/xlink" width="26.4814" height="20.6753">
 <g>
  <rect height="20.6753" opacity="0" width="26.4814" x="0" y="0"/>
  <path d="M25.3247 16.5986L18.6538 10.332C18.1484 9.88281 17.5645 9.63574 16.958 9.63574C16.3403 9.63574 15.79 9.84912 15.2734 10.3096L10.1973 14.8467L8.11963 12.9712C7.64795 12.5444 7.13135 12.3311 6.60352 12.3311C6.09814 12.3311 5.62646 12.5332 5.15479 12.96L0.875977 16.8232C0.943359 18.856 1.77441 19.8892 3.44775 19.8892L22.27 19.8892C24.3027 19.8892 25.3247 18.7549 25.3247 16.5986ZM8.3667 10.4443C9.81543 10.4443 11.0059 9.25391 11.0059 7.79395C11.0059 6.34521 9.81543 5.14355 8.3667 5.14355C6.90674 5.14355 5.71631 6.34521 5.71631 7.79395C5.71631 9.25391 6.90674 10.4443 8.3667 10.4443ZM3.52637 20.6753L22.9551 20.6753C25.3135 20.6753 26.4814 19.5186 26.4814 17.2051L26.4814 3.48145C26.4814 1.16797 25.3135 0 22.9551 0L3.52637 0C1.1792 0 0 1.16797 0 3.48145L0 17.2051C0 19.5186 1.1792 20.6753 3.52637 20.6753ZM3.54883 18.8672C2.42578 18.8672 1.80811 18.272 1.80811 17.104L1.80811 3.58252C1.80811 2.41455 2.42578 1.80811 3.54883 1.80811L22.9326 1.80811C24.0444 1.80811 24.6733 2.41455 24.6733 3.58252L24.6733 17.104C24.6733 18.272 24.0444 18.8672 22.9326 18.8672Z" fill="#000000"/>
 </g>
</svg>
