<?xml version="1.0" encoding="UTF-8"?>
<!--Generator: Apple Native CoreSVG 175.5-->
<!DOCTYPE svg
PUBLIC "-//W3C//DTD SVG 1.1//EN"
       "http://www.w3.org/Graphics/SVG/1.1/DTD/svg11.dtd">
<svg version="1.1" xmlns="http://www.w3.org/2000/svg" xmlns:xlink="http://www.w3.org/1999/xlink" width="18.8896" height="24.0894">
 <g>
  <rect height="24.0894" opacity="0" width="18.8896" x="0" y="0"/>
  <path d="M6.69336 11.3877C8.06348 11.3877 9.00684 10.4443 9.00684 9.09668C9.00684 7.78271 8.19824 6.90674 7.00781 6.90674C6.4126 6.90674 5.91846 7.09766 5.57031 7.53564L5.3457 7.53564C5.43555 7.12012 5.69385 6.72705 6.08691 6.40137C6.43506 6.09814 6.86182 5.896 7.35596 5.79492C7.77148 5.69385 7.89502 5.57031 7.89502 5.32324C7.89502 5.0874 7.72656 4.90771 7.41211 4.90771C6.68213 4.90771 5.77246 5.35693 5.14355 6.03076C4.51465 6.71582 4.2002 7.5918 4.2002 8.54639C4.2002 10.3433 5.31201 11.3877 6.69336 11.3877ZM12.3872 11.3765C13.7461 11.3765 14.7007 10.4331 14.7007 9.08545C14.7007 7.77148 13.8921 6.89551 12.7017 6.89551C12.0952 6.89551 11.6123 7.08643 11.2642 7.52441L11.0283 7.52441C11.1182 7.12012 11.3765 6.73828 11.7358 6.4126C12.0952 6.08691 12.5444 5.896 13.0386 5.78369C13.4541 5.68262 13.5889 5.55908 13.5889 5.31201C13.5889 5.07617 13.4204 4.89648 13.106 4.89648C12.376 4.89648 11.4326 5.36816 10.8374 6.01953C10.1973 6.70459 9.88281 7.58057 9.88281 8.53516C9.88281 10.332 10.9946 11.3765 12.3872 11.3765ZM5.18848 15.1724L13.7124 15.1724C14.1167 15.1724 14.4087 14.8579 14.4087 14.4648C14.4087 14.083 14.1167 13.791 13.7124 13.791L5.18848 13.791C4.78418 13.791 4.48096 14.083 4.48096 14.4648C4.48096 14.8579 4.78418 15.1724 5.18848 15.1724ZM5.18848 19.0806L9.22021 19.0806C9.62451 19.0806 9.9165 18.7886 9.9165 18.4067C9.9165 18.0137 9.62451 17.6992 9.22021 17.6992L5.18848 17.6992C4.78418 17.6992 4.48096 18.0137 4.48096 18.4067C4.48096 18.7886 4.78418 19.0806 5.18848 19.0806ZM0 20.563C0 22.9102 1.15674 24.0781 3.48145 24.0781L15.4082 24.0781C17.7329 24.0781 18.8896 22.9102 18.8896 20.563L18.8896 3.52637C18.8896 1.19043 17.7329 0 15.4082 0L3.48145 0C1.15674 0 0 1.19043 0 3.52637ZM1.80811 20.5293L1.80811 3.56006C1.80811 2.43701 2.40332 1.80811 3.57129 1.80811L15.3184 1.80811C16.4863 1.80811 17.0815 2.43701 17.0815 3.56006L17.0815 20.5293C17.0815 21.6523 16.4863 22.27 15.3184 22.27L3.57129 22.27C2.40332 22.27 1.80811 21.6523 1.80811 20.5293Z" fill="#000000"/>
 </g>
</svg>
