<?xml version="1.0" encoding="UTF-8"?>
<!--Generator: Apple Native CoreSVG 175.5-->
<!DOCTYPE svg
PUBLIC "-//W3C//DTD SVG 1.1//EN"
       "http://www.w3.org/Graphics/SVG/1.1/DTD/svg11.dtd">
<svg version="1.1" xmlns="http://www.w3.org/2000/svg" xmlns:xlink="http://www.w3.org/1999/xlink" width="22.9102" height="22.9214">
 <g>
  <rect height="22.9214" opacity="0" width="22.9102" x="0" y="0"/>
  <path d="M11.9268 19.979C13.9932 19.979 15.7563 16.7783 16.2168 16.0146C16.7896 15.0938 16.52 14.1729 16.52 13.6001C16.52 13.1958 17.7104 12.3423 17.7104 11.3652C17.7104 10.377 15.4082 9.59082 15.4082 9.0293C15.4082 8.66992 15.6777 8.35547 15.9697 8.35547C16.4639 8.35547 17.6768 9.9165 18.3618 9.9165C18.811 9.9165 18.8447 9.52344 19.0918 9.52344C19.6646 9.52344 19.7544 12.7466 21.5176 13.5103C22.0005 12.9487 22.2925 12.3086 22.2925 11.4551C22.2925 5.604 17.4297 0.606445 11.4438 0.617676C8.1084 0.628906 6.87305 1.90918 6.87305 3.03223C6.87305 4.50342 5.67139 4.84033 5.67139 5.72754C5.67139 6.28906 6.06445 6.65967 6.6709 6.65967C7.97363 6.65967 7.9624 5.24463 8.625 5.24463C9.11914 5.25586 9.57959 5.99707 10.3994 5.99707C10.77 5.99707 10.9497 5.76123 10.9722 5.42432C10.9946 5.27832 11.062 5.21094 11.1968 5.21094C11.9155 5.21094 12.7129 6.01953 12.7129 6.51367C12.7129 6.98535 12.5332 7.34473 12.2412 7.34473C11.7358 7.34473 10.478 6.74951 9.35498 6.74951C6.83936 6.74951 4.73926 8.53516 4.73926 10.6689C4.73926 12.522 5.82861 13.6001 7.73779 13.6001C8.89453 13.6001 9.74805 14.3862 9.74805 15.4531C9.74805 17.1152 9.56836 19.979 11.9268 19.979ZM14.7568 4.68311C14.3413 4.68311 14.1729 4.89648 13.8135 4.89648C13.4653 4.89648 13.207 4.64941 13.207 4.30127C13.207 3.76221 13.7461 3.45898 14.667 3.45898C15.4531 3.45898 16.0483 3.86328 16.0483 4.39111C16.0483 4.68311 15.8574 4.91895 15.6104 4.91895C15.2061 4.91895 14.9927 4.68311 14.7568 4.68311ZM11.4551 22.9102C17.7217 22.9102 22.9102 17.7104 22.9102 11.4551C22.9102 5.18848 17.7104 0 11.4438 0C5.18848 0 0 5.18848 0 11.4551C0 17.7104 5.19971 22.9102 11.4551 22.9102ZM11.4551 21.3828C6.03076 21.3828 1.52734 16.8794 1.52734 11.4551C1.52734 6.03076 6.01953 1.52734 11.4438 1.52734C16.8682 1.52734 21.3828 6.03076 21.3828 11.4551C21.3828 16.8794 16.8794 21.3828 11.4551 21.3828Z" fill="#000000"/>
 </g>
</svg>
